<svg xmlns="http://www.w3.org/2000/svg" width="29.999" height="30.001" viewBox="0 0 29.999 30.001">
  <path id="Icon_material-update" data-name="Icon material-update" d="M34.5,16.367H23.2l4.567-4.7A11.732,11.732,0,0,0,11.3,11.5a11.459,11.459,0,0,0,0,16.317,11.7,11.7,0,0,0,16.467,0,10.856,10.856,0,0,0,3.4-8.15H34.5a15.569,15.569,0,0,1-4.4,10.484,15.091,15.091,0,0,1-21.2,0A14.733,14.733,0,0,1,8.867,9.184a14.979,14.979,0,0,1,21.084,0L34.5,4.5Z" transform="translate(-4.502 -4.5)" fill="#2d3142"/>
</svg>
