<svg xmlns="http://www.w3.org/2000/svg" width="29.99" height="20.992" viewBox="0 0 29.99 20.992">
  <path id="Icon_awesome-box-open" data-name="Icon awesome-box-open" d="M19.946,12.745a2.271,2.271,0,0,1-1.94-1.1L14.993,6.654l-3.008,4.995a2.279,2.279,0,0,1-1.945,1.1,2.155,2.155,0,0,1-.623-.089L3,10.824v8.341a1.5,1.5,0,0,0,1.134,1.453l10.13,2.535a3.046,3.046,0,0,0,1.453,0l10.14-2.535a1.5,1.5,0,0,0,1.134-1.453V10.824l-6.419,1.832A2.155,2.155,0,0,1,19.946,12.745Zm9.962-5.257L27.495,2.671a.765.765,0,0,0-.783-.417L14.993,3.749l4.3,7.127a.77.77,0,0,0,.867.342L29.43,8.57a.772.772,0,0,0,.478-1.082ZM2.492,2.671.079,7.488A.764.764,0,0,0,.552,8.565l9.273,2.647a.77.77,0,0,0,.867-.342l4.3-7.122L3.27,2.254a.766.766,0,0,0-.778.417Z" transform="translate(0.003 -2.247)" fill="#2d3142"/>
</svg>
