<svg id="Glyph" xmlns="http://www.w3.org/2000/svg" width="30.075" height="30.075" viewBox="0 0 30.075 30.075">
  <path id="Path_124" data-name="Path 124" d="M15.349,80.039a1.291,1.291,0,0,0-1.039.191L8.771,83.923V81.287a1.288,1.288,0,0,0-.459-1.005,1.255,1.255,0,0,0-1.577-.008L.47,85.286a1.253,1.253,0,0,0-.47.978V96.288a1.253,1.253,0,0,0,1.253,1.253H16.288V81.252A1.254,1.254,0,0,0,15.349,80.039Z" transform="translate(0 -67.465)" fill="#2d3142"/>
  <path id="Path_125" data-name="Path 125" d="M123.277,120H112v11.276h11.277a1.253,1.253,0,0,0,1.253-1.253v-8.771A1.253,1.253,0,0,0,123.277,120Z" transform="translate(-94.454 -101.201)" fill="#2d3142"/>
  <path id="Path_126" data-name="Path 126" d="M52.218,2.506a2.122,2.122,0,0,1,1.329.416,5.088,5.088,0,0,0,2.889.837,5.085,5.085,0,0,0,2.889-.837,2.331,2.331,0,0,1,2.658,0,5.088,5.088,0,0,0,2.889.837V1.253A2.123,2.123,0,0,1,63.543.837a5.405,5.405,0,0,0-5.778,0,2.12,2.12,0,0,1-1.329.416A2.123,2.123,0,0,1,55.107.837a5.4,5.4,0,0,0-5.778,0A2.123,2.123,0,0,1,48,1.253V3.759a5.083,5.083,0,0,0,2.889-.837A2.126,2.126,0,0,1,52.218,2.506Z" transform="translate(-41.399)" fill="#2d3142"/>
  <path id="Path_127" data-name="Path 127" d="M3.759,34.506a1.755,1.755,0,0,1,1.184.416,4.2,4.2,0,0,0,2.575.837,4.2,4.2,0,0,0,2.574-.837,1.894,1.894,0,0,1,2.369,0,4.2,4.2,0,0,0,2.574.837V33.253a1.756,1.756,0,0,1-1.185-.416A4.191,4.191,0,0,0,11.277,32a4.2,4.2,0,0,0-2.575.837,1.754,1.754,0,0,1-1.184.416,1.755,1.755,0,0,1-1.184-.416A4.193,4.193,0,0,0,3.759,32a4.192,4.192,0,0,0-2.574.837A1.756,1.756,0,0,1,0,33.253v2.506a4.193,4.193,0,0,0,2.574-.837A1.758,1.758,0,0,1,3.759,34.506Z" transform="translate(0 -26.987)" fill="#2d3142"/>
  <path id="Path_128" data-name="Path 128" d="M132.045,33.149l-.74,11.381h6.483l-.74-11.381A1.253,1.253,0,0,0,135.8,32h-2.506a1.253,1.253,0,0,0-1.249,1.149Z" transform="translate(-110.736 -26.987)" fill="#2d3142"/>
</svg>
