<svg xmlns="http://www.w3.org/2000/svg" width="17.813" height="28.5" viewBox="0 0 17.813 28.5">
  <path id="Icon_awesome-mobile-alt" data-name="Icon awesome-mobile-alt" d="M15.141,0H2.672A2.673,2.673,0,0,0,0,2.672V25.828A2.673,2.673,0,0,0,2.672,28.5H15.141a2.673,2.673,0,0,0,2.672-2.672V2.672A2.673,2.673,0,0,0,15.141,0ZM8.906,26.719a1.781,1.781,0,1,1,1.781-1.781A1.779,1.779,0,0,1,8.906,26.719Zm6.234-6.012a.67.67,0,0,1-.668.668H3.34a.67.67,0,0,1-.668-.668V3.34a.67.67,0,0,1,.668-.668H14.473a.67.67,0,0,1,.668.668Z" fill="#2d3142"/>
</svg>
