<svg xmlns="http://www.w3.org/2000/svg" width="29" height="29" viewBox="0 0 29 29">
  <path id="Icon_awesome-check-circle" data-name="Icon awesome-check-circle" d="M29.563,15.063a14.5,14.5,0,1,1-14.5-14.5A14.5,14.5,0,0,1,29.563,15.063ZM13.385,22.74,24.143,11.982a.935.935,0,0,0,0-1.323L22.82,9.336a.935.935,0,0,0-1.323,0L12.724,18.11l-4.1-4.1a.936.936,0,0,0-1.323,0L5.982,15.336a.935.935,0,0,0,0,1.323l6.081,6.081a.936.936,0,0,0,1.323,0Z" transform="translate(-0.563 -0.563)" fill="#2d3142"/>
</svg>
