<svg xmlns="http://www.w3.org/2000/svg" width="28.971" height="23.49" viewBox="0 0 28.971 23.49">
  <path id="Icon_material-format-list-bulleted" data-name="Icon material-format-list-bulleted" d="M6.1,16.146A2.349,2.349,0,1,0,8.448,18.5,2.346,2.346,0,0,0,6.1,16.146Zm0-9.4A2.349,2.349,0,1,0,8.448,9.1,2.346,2.346,0,0,0,6.1,6.75Zm0,18.792a2.349,2.349,0,1,0,2.349,2.349A2.356,2.356,0,0,0,6.1,25.542Zm4.7,3.915H32.721V26.325H10.8Zm0-9.4H32.721V16.929H10.8Zm0-12.528v3.132H32.721V7.533Z" transform="translate(-3.75 -6.75)" fill="#2d3142"/>
</svg>
