<svg xmlns="http://www.w3.org/2000/svg" width="27.082" height="29.547" viewBox="0 0 27.082 29.547">
  <g id="Group_651" data-name="Group 651" transform="translate(-18 -198)">
    <path id="Icon_ionic-ios-settings" data-name="Icon ionic-ios-settings" d="M21.441,13.733a2.376,2.376,0,0,1,1.524-2.217,9.418,9.418,0,0,0-1.14-2.746,2.408,2.408,0,0,1-.967.207A2.371,2.371,0,0,1,18.69,5.64,9.39,9.39,0,0,0,15.949,4.5a2.374,2.374,0,0,1-4.434,0A9.418,9.418,0,0,0,8.77,5.64,2.371,2.371,0,0,1,6.6,8.977a2.33,2.33,0,0,1-.967-.207A9.627,9.627,0,0,0,4.5,11.521a2.375,2.375,0,0,1,0,4.434A9.418,9.418,0,0,0,5.644,18.7a2.372,2.372,0,0,1,3.13,3.13,9.473,9.473,0,0,0,2.746,1.14,2.37,2.37,0,0,1,4.424,0,9.419,9.419,0,0,0,2.746-1.14,2.374,2.374,0,0,1,3.13-3.13,9.473,9.473,0,0,0,1.14-2.746A2.387,2.387,0,0,1,21.441,13.733Zm-7.665,3.842a3.847,3.847,0,1,1,3.847-3.847A3.846,3.846,0,0,1,13.776,17.575Z" transform="translate(13.5 193.5)" fill="#2d3142"/>
    <path id="Icon_ionic-ios-settings-2" data-name="Icon ionic-ios-settings" d="M15.794,10.655A1.584,1.584,0,0,1,16.81,9.177a6.279,6.279,0,0,0-.76-1.83,1.605,1.605,0,0,1-.644.138A1.581,1.581,0,0,1,13.96,5.26a6.26,6.26,0,0,0-1.827-.76,1.583,1.583,0,0,1-2.956,0,6.279,6.279,0,0,0-1.83.76A1.581,1.581,0,0,1,5.9,7.485a1.553,1.553,0,0,1-.644-.138A6.418,6.418,0,0,0,4.5,9.18a1.584,1.584,0,0,1,0,2.956,6.279,6.279,0,0,0,.76,1.83A1.581,1.581,0,0,1,7.35,16.054a6.316,6.316,0,0,0,1.83.76,1.58,1.58,0,0,1,2.949,0,6.279,6.279,0,0,0,1.83-.76,1.583,1.583,0,0,1,2.087-2.087,6.316,6.316,0,0,0,.76-1.83A1.592,1.592,0,0,1,15.794,10.655Zm-5.11,2.561a2.565,2.565,0,1,1,2.565-2.565A2.564,2.564,0,0,1,10.684,13.216Z" transform="translate(28.272 210.734)" fill="#2d3142"/>
  </g>
</svg>
