<svg xmlns="http://www.w3.org/2000/svg" width="29.644" height="23.715" viewBox="0 0 29.644 23.715">
  <path id="Icon_awesome-truck" data-name="Icon awesome-truck" d="M28.9,16.3h-.741V11.3a2.223,2.223,0,0,0-.653-1.57L22.881,5.1a2.223,2.223,0,0,0-1.57-.653H19.268V2.223A2.224,2.224,0,0,0,17.045,0H2.223A2.224,2.224,0,0,0,0,2.223V17.045a2.224,2.224,0,0,0,2.223,2.223h.741a4.447,4.447,0,0,0,8.893,0h5.929a4.447,4.447,0,1,0,8.893,0H28.9a.743.743,0,0,0,.741-.741V17.045A.743.743,0,0,0,28.9,16.3ZM7.411,21.492a2.223,2.223,0,1,1,2.223-2.223A2.224,2.224,0,0,1,7.411,21.492Zm14.822,0a2.223,2.223,0,1,1,2.223-2.223A2.224,2.224,0,0,1,22.233,21.492Zm3.705-9.634h-6.67V6.67h2.043L25.938,11.3Z" fill="#2d3142"/>
</svg>
