<svg xmlns="http://www.w3.org/2000/svg" width="29.498" height="29.503" viewBox="0 0 29.498 29.503">
  <path id="Icon_open-monitor" data-name="Icon open-monitor" d="M1.253,0A1.843,1.843,0,0,0,0,1.842V20.276A1.843,1.843,0,0,0,1.843,22.12H11.06v3.687H7.373a3.7,3.7,0,0,0-3.687,3.687H25.808a3.7,3.7,0,0,0-3.687-3.687H18.434V22.12h9.217a1.843,1.843,0,0,0,1.843-1.843V1.842A1.843,1.843,0,0,0,27.651,0H1.843a1.843,1.843,0,0,0-.332,0A1.843,1.843,0,0,0,1.29,0ZM3.686,3.685H25.808V18.433H3.686Z" transform="translate(0.003 0.009)" fill="#2d3142"/>
</svg>
