<svg xmlns="http://www.w3.org/2000/svg" width="25.876" height="29.417" viewBox="0 0 25.876 29.417">
  <path id="Path_161" data-name="Path 161" d="M36.947,5.074a3.177,3.177,0,1,1,6.034-1.991l6.243,18.923a4.171,4.171,0,0,0-1.818-.069L41.362,3.617a1.472,1.472,0,1,0-2.8.923.853.853,0,1,1-1.619.534Zm24.6,14.845L51.315,23.294a4.178,4.178,0,0,1,.833,1.456c.006.02.01.04.016.06l9.913-3.271a.853.853,0,0,0-.534-1.619Zm-10.2,5.1a3.349,3.349,0,1,1-4.23-2.131A3.35,3.35,0,0,1,51.339,25.017Zm-1.59.525a1.674,1.674,0,1,0-1.065,2.115A1.674,1.674,0,0,0,49.749,25.542Zm9.21-18.459,3.473,10.526a.426.426,0,0,1-.271.538L51.23,21.754a.426.426,0,0,1-.538-.271L47.219,10.957a.426.426,0,0,1,.271-.538L58.42,6.812A.426.426,0,0,1,58.958,7.083ZM57.512,13.2,53.791,11.15,52.019,15.01l1.173.54.766-1.67,1.383,4.193,1.324-.437-1.383-4.192,1.609.886Zm-3.247-6.28L52.045.188A.272.272,0,0,0,51.7.014L49.8.643,49.788.66,49.772.651l-1,.331-1.133.374-1,.332-.008.017L46.6,1.7l-1.891.624a.273.273,0,0,0-.173.344l2.22,6.73a.272.272,0,0,0,.344.173l6.988-2.306A.273.273,0,0,0,54.265,6.918Z" transform="translate(-36.787 -0.001)" fill="#2d3142"/>
</svg>
