<svg id="Component_30" data-name="Component 30" xmlns="http://www.w3.org/2000/svg" width="29.5" height="29.5" viewBox="0 0 29.5 29.5">
  <g id="function">
    <path id="Path_205" data-name="Path 205" d="M14.75,2.458V0a7.116,7.116,0,0,0-7,5.847l-1.4,7.674H3.073v2.458H5.9L4.587,23.213A4.659,4.659,0,0,1,0,27.042V29.5a7.116,7.116,0,0,0,7-5.847l1.4-7.674h2.662V13.521H8.848l1.316-7.234A4.659,4.659,0,0,1,14.75,2.458Zm0,0" fill="#2d3142"/>
    <path id="Path_206" data-name="Path 206" d="M171.073,87.136l-.983-.738c-.085.114-2.09,2.847-2.09,8.113s2,8,2.09,8.113l1.966-1.475c-.015-.021-1.6-2.253-1.6-6.637s1.587-6.623,1.6-6.645Zm0,0" transform="translate(-155.094 -79.761)" fill="#2d3142"/>
    <path id="Path_207" data-name="Path 207" d="M331.134,87.874c.016.021,1.6,2.253,1.6,6.637s-1.587,6.623-1.6,6.645l.989.73.983.738c.086-.114,2.089-2.847,2.089-8.113s-2-8-2.089-8.113Zm0,0" transform="translate(-305.691 -79.761)" fill="#2d3142"/>
    <path id="Path_208" data-name="Path 208" d="M231.979,142.586l-1.464,2.014-1.464-2.014-1.988,1.446,1.932,2.657-1.932,2.657,1.988,1.446,1.464-2.014,1.464,2.014,1.988-1.446-1.932-2.657,1.932-2.657Zm0,0" transform="translate(-209.619 -131.632)" fill="#2d3142"/>
  </g>
</svg>
