<svg id="Icon_awesome-calendar-check" data-name="Icon awesome-calendar-check" xmlns="http://www.w3.org/2000/svg" width="22.7" height="27.168" viewBox="0 0 22.7 27.168">
  <path id="Icon_awesome-calendar-check-2" data-name="Icon awesome-calendar-check" d="M22.092,8.49H.608A.623.623,0,0,1,0,7.853V5.943A2.492,2.492,0,0,1,2.432,3.4H4.864V.637A.623.623,0,0,1,5.472,0H7.5a.623.623,0,0,1,.608.637V3.4h6.486V.637A.623.623,0,0,1,15.2,0h2.027a.623.623,0,0,1,.608.637V3.4h2.432A2.492,2.492,0,0,1,22.7,5.943v1.91A.623.623,0,0,1,22.092,8.49ZM.608,10.188H22.092a.623.623,0,0,1,.608.637v13.8a2.492,2.492,0,0,1-2.432,2.547H2.432A2.492,2.492,0,0,1,0,24.621v-13.8A.623.623,0,0,1,.608,10.188ZM17.5,15.279l-1.427-1.507a.589.589,0,0,0-.86,0L9.836,19.35l-2.33-2.46a.589.589,0,0,0-.86,0L5.207,18.382a.658.658,0,0,0,0,.9L9.389,23.7a.589.589,0,0,0,.86,0l7.243-7.525a.658.658,0,0,0,0-.9Z" fill="#2d3142"/>
</svg>
