<svg id="Icon_material-settings-applications" data-name="Icon material-settings-applications" xmlns="http://www.w3.org/2000/svg" width="22.699" height="22.699" viewBox="0 0 22.699 22.699">
  <path id="Icon_material-settings-applications-2" data-name="Icon material-settings-applications" d="M15.85,13.327a2.522,2.522,0,1,0,2.522,2.522A2.53,2.53,0,0,0,15.85,13.327ZM24.677,4.5H7.022A2.521,2.521,0,0,0,4.5,7.022V24.677A2.521,2.521,0,0,0,7.022,27.2H24.677A2.521,2.521,0,0,0,27.2,24.677V7.022A2.521,2.521,0,0,0,24.677,4.5ZM22.47,15.85a6.383,6.383,0,0,1-.063.858l1.866,1.463a.446.446,0,0,1,.1.567l-1.765,3.052a.446.446,0,0,1-.542.189L19.872,21.1a6.763,6.763,0,0,1-1.488.87L18.056,24.3a.458.458,0,0,1-.441.378H14.084a.459.459,0,0,1-.441-.366l-.328-2.333a6.485,6.485,0,0,1-1.488-.87l-2.194.883A.446.446,0,0,1,9.09,21.8L7.325,18.75a.446.446,0,0,1,.1-.567L9.292,16.72a6.731,6.731,0,0,1-.063-.87,6.382,6.382,0,0,1,.063-.858L7.426,13.529a.446.446,0,0,1-.1-.567L9.09,9.91a.446.446,0,0,1,.542-.189l2.194.883a6.763,6.763,0,0,1,1.488-.87L13.643,7.4a.458.458,0,0,1,.441-.378h3.531a.459.459,0,0,1,.441.366l.328,2.333a6.485,6.485,0,0,1,1.488.87l2.194-.883a.446.446,0,0,1,.542.189l1.765,3.052a.446.446,0,0,1-.1.567l-1.866,1.463A6.731,6.731,0,0,1,22.47,15.85Z" transform="translate(-4.5 -4.5)" fill="#2d3142"/>
</svg>
