<svg xmlns="http://www.w3.org/2000/svg" width="21.91" height="29.213" viewBox="0 0 21.91 29.213">
  <path id="Icon_awesome-file-pdf" data-name="Icon awesome-file-pdf" d="M10.379,14.612a5.5,5.5,0,0,1-.114-2.676C10.744,11.936,10.7,14.042,10.379,14.612Zm-.1,2.693a26.328,26.328,0,0,1-1.62,3.577,21.01,21.01,0,0,1,3.589-1.25A7.391,7.391,0,0,1,10.282,17.305ZM4.913,24.426c0,.046.753-.308,1.991-2.294A7.886,7.886,0,0,0,4.913,24.426Zm9.238-15.3h7.76V27.844a1.366,1.366,0,0,1-1.369,1.369H1.369A1.366,1.366,0,0,1,0,27.844V1.369A1.366,1.366,0,0,1,1.369,0H12.781V7.76A1.373,1.373,0,0,0,14.15,9.129Zm-.456,9.8a5.727,5.727,0,0,1-2.436-3.07,8.2,8.2,0,0,0,.354-3.663,1.429,1.429,0,0,0-2.727-.388A9.487,9.487,0,0,0,9.346,16.2a53.578,53.578,0,0,1-2.328,4.9c-.006,0-.006.006-.011.006-1.546.793-4.2,2.539-3.11,3.88a1.773,1.773,0,0,0,1.227.571c1.021,0,2.037-1.027,3.486-3.526a32.524,32.524,0,0,1,4.508-1.324,8.647,8.647,0,0,0,3.652,1.113,1.477,1.477,0,0,0,1.124-2.476c-.793-.776-3.1-.553-4.2-.411ZM21.511,5.991,15.919.4a1.368,1.368,0,0,0-.97-.4h-.342V7.3h7.3V6.955A1.365,1.365,0,0,0,21.511,5.991ZM17.283,20.558c.234-.154-.143-.679-2.442-.514C16.957,20.946,17.283,20.558,17.283,20.558Z" fill="#2d3142"/>
</svg>
