<svg xmlns="http://www.w3.org/2000/svg" width="21.91" height="29.213" viewBox="0 0 21.91 29.213">
  <path id="Icon_awesome-file-video" data-name="Icon awesome-file-video" d="M21.91,6.958V7.3h-7.3V0h.346a1.37,1.37,0,0,1,.968.4l5.588,5.588a1.37,1.37,0,0,1,.4.968Zm-9.129.8V0H1.369A1.369,1.369,0,0,0,0,1.369V27.844a1.369,1.369,0,0,0,1.369,1.369H20.541a1.369,1.369,0,0,0,1.369-1.369V9.129H14.15A1.373,1.373,0,0,1,12.781,7.76Zm5.477,8.217v6.388a1.37,1.37,0,0,1-2.338.968l-3.14-3.139v2.172a1.369,1.369,0,0,1-1.369,1.369H5.021a1.369,1.369,0,0,1-1.369-1.369v-6.39a1.369,1.369,0,0,1,1.369-1.369h6.39a1.369,1.369,0,0,1,1.369,1.369v2.172l3.14-3.139A1.37,1.37,0,0,1,18.258,15.977Z" fill="#2d3142"/>
</svg>
