<svg xmlns="http://www.w3.org/2000/svg" width="23.207" height="29.702" viewBox="0 0 23.207 29.702">
  <path id="Icon_awesome-exchange-alt" data-name="Icon awesome-exchange-alt" d="M0,10.435V9.506A1.392,1.392,0,0,1,1.392,8.114H22.277V5.329a1.393,1.393,0,0,1,2.377-.985l4.641,4.641a1.392,1.392,0,0,1,0,1.969L24.653,15.6a1.393,1.393,0,0,1-2.377-.984V11.827H1.392A1.392,1.392,0,0,1,0,10.435Zm28.31,8.818H7.426V16.468a1.393,1.393,0,0,0-2.377-.985L.408,20.124a1.392,1.392,0,0,0,0,1.969l4.641,4.641a1.393,1.393,0,0,0,2.377-.984V22.965H28.31A1.392,1.392,0,0,0,29.7,21.573v-.928A1.392,1.392,0,0,0,28.31,19.252Z" transform="translate(27.143) rotate(90)" fill="#2d3142"/>
</svg>
