<svg xmlns="http://www.w3.org/2000/svg" width="32.622" height="29" viewBox="0 0 32.622 29">
  <path id="Icon_awesome-file-export" data-name="Icon awesome-file-export" d="M21.75,6.9a1.355,1.355,0,0,0-.4-.957L15.808.4a1.358,1.358,0,0,0-.963-.4H14.5V7.25h7.25ZM32.342,17.445l-5.421-5.46a.909.909,0,0,0-1.552.64v3.687H21.744v3.625h3.625V23.63a.909.909,0,0,0,1.552.64L32.342,18.8A.964.964,0,0,0,32.342,17.445ZM10.875,19.031V17.219a.909.909,0,0,1,.906-.906H21.75V9.063h-7.7A1.363,1.363,0,0,1,12.688,7.7V0H1.359A1.356,1.356,0,0,0,0,1.359V27.641A1.356,1.356,0,0,0,1.359,29H20.391a1.356,1.356,0,0,0,1.359-1.359v-7.7H11.781A.909.909,0,0,1,10.875,19.031Z" fill="#2d3142"/>
</svg>
