<svg xmlns="http://www.w3.org/2000/svg" width="31" height="31" viewBox="0 0 31 31">
  <path id="Notification_Icon" data-name="Notification Icon" d="M-1365.375,94.125h7.749A3.886,3.886,0,0,1-1361.5,98,3.886,3.886,0,0,1-1365.375,94.125Zm-9.688-1.937A1.831,1.831,0,0,1-1377,90.251a1.831,1.831,0,0,1,1.937-1.937h.969c1.355-1.357,2.905-3.294,2.905-5.814V76.688A9.6,9.6,0,0,1-1361.5,67a9.593,9.593,0,0,1,9.686,9.688V82.5c0,2.52,1.55,4.457,2.907,5.814h.969A1.831,1.831,0,0,1-1346,90.251a1.831,1.831,0,0,1-1.937,1.937Z" transform="translate(1377 -67)" fill="#2d3142"/>
</svg>
