<svg id="Icon_ionic-ios-undo" data-name="Icon ionic-ios-undo" xmlns="http://www.w3.org/2000/svg" width="29.214" height="22.944" viewBox="0 0 29.214 22.944">
  <path id="Icon_ionic-ios-undo-2" data-name="Icon ionic-ios-undo" d="M2.263,26.155a13.853,13.853,0,0,1,3.7-10.346c2.634-2.653,5.991-4.023,10.653-4.27a.264.264,0,0,0,.248-.261V5.886a.263.263,0,0,1,.4-.222l14.076,9.271a.262.262,0,0,1,0,.437L17.271,24.642a.259.259,0,0,1-.4-.222V19.1a.261.261,0,0,0-.274-.261,15.33,15.33,0,0,0-6.33,1.513A16.054,16.054,0,0,0,4.1,25.8a13.961,13.961,0,0,0-1.4,2.588.289.289,0,0,1-.267.183H2.25C2.257,27.8,2.263,26.826,2.263,26.155Z" transform="translate(-2.25 -5.622)" fill="#2d3142"/>
</svg>
