<svg xmlns="http://www.w3.org/2000/svg" width="29.371" height="29.371" viewBox="0 0 29.371 29.371">
  <path id="Icon_awesome-ticket-alt" data-name="Icon awesome-ticket-alt" d="M5.538,8.654H19.384v8.307H5.538Zm17.307,4.154a2.077,2.077,0,0,0,2.077,2.077v4.154a2.077,2.077,0,0,1-2.077,2.077H2.077A2.077,2.077,0,0,1,0,19.038V14.884a2.077,2.077,0,0,0,2.077-2.077A2.077,2.077,0,0,0,0,10.731V6.577A2.077,2.077,0,0,1,2.077,4.5H22.845a2.077,2.077,0,0,1,2.077,2.077v4.154A2.077,2.077,0,0,0,22.845,12.807Zm-2.077-4.5A1.038,1.038,0,0,0,19.73,7.269H5.192A1.038,1.038,0,0,0,4.154,8.308v9a1.038,1.038,0,0,0,1.038,1.038H19.73a1.038,1.038,0,0,0,1.038-1.038Z" transform="translate(-3.182 14.441) rotate(-45)" fill="#2d3142"/>
</svg>
