<svg xmlns="http://www.w3.org/2000/svg" width="29.874" height="29.874" viewBox="0 0 29.874 29.874">
  <path id="Icon_metro-help" data-name="Icon metro-help" d="M17.508,1.928A14.937,14.937,0,1,0,32.445,16.865,14.937,14.937,0,0,0,17.508,1.928Zm-5.6,14.937a5.6,5.6,0,1,1,5.6,5.6,5.6,5.6,0,0,1-5.6-5.6Zm17.679,5-5.176-2.144a7.488,7.488,0,0,0,0-5.717l5.176-2.144a13.1,13.1,0,0,1,0,10.005ZM22.51,4.788,20.366,9.964a7.488,7.488,0,0,0-5.717,0L12.505,4.788a13.1,13.1,0,0,1,10.005,0ZM5.43,11.862l5.176,2.144a7.488,7.488,0,0,0,0,5.717L5.43,21.868a13.1,13.1,0,0,1,0-10.005Zm7.075,17.08,2.144-5.176a7.488,7.488,0,0,0,5.717,0l2.144,5.176a13.1,13.1,0,0,1-10.005,0Z" transform="translate(-2.571 -1.928)" fill="#2d3142"/>
</svg>
