<svg id="Icon_ionic-ios-undo" data-name="Icon ionic-ios-undo" xmlns="http://www.w3.org/2000/svg" width="29.214" height="22.945" viewBox="0 0 29.214 22.945">
  <path id="Icon_ionic-ios-undo-2" data-name="Icon ionic-ios-undo" d="M31.451,26.155a13.854,13.854,0,0,0-3.7-10.347c-2.634-2.653-5.992-4.023-10.653-4.27a.264.264,0,0,1-.248-.261V5.886a.263.263,0,0,0-.4-.222L2.367,14.935a.262.262,0,0,0,0,.437l14.076,9.271a.259.259,0,0,0,.4-.222V19.1a.261.261,0,0,1,.274-.261,15.33,15.33,0,0,1,6.331,1.513A16.055,16.055,0,0,1,29.613,25.8a13.961,13.961,0,0,1,1.4,2.588.289.289,0,0,0,.267.183h.189C31.458,27.8,31.451,26.827,31.451,26.155Z" transform="translate(-2.25 -5.622)" fill="#2d3142"/>
</svg>
