<svg xmlns="http://www.w3.org/2000/svg" width="28.279" height="28.279" viewBox="0 0 28.279 28.279">
  <path id="Icon_metro-database" data-name="Icon metro-database" d="M16.71,1.928C8.9,1.928,2.571,3.906,2.571,6.347V9.881c0,2.44,6.33,4.419,14.139,4.419s14.139-1.978,14.139-4.419V6.347C30.849,3.906,24.519,1.928,16.71,1.928Zm0,15.023c-7.809,0-14.139-1.978-14.139-4.419v5.3c0,2.44,6.33,4.419,14.139,4.419s14.139-1.978,14.139-4.419v-5.3C30.849,14.973,24.519,16.951,16.71,16.951Zm0,7.953C8.9,24.9,2.571,22.926,2.571,20.486v5.3c0,2.44,6.33,4.419,14.139,4.419s14.139-1.978,14.139-4.419v-5.3C30.849,22.926,24.519,24.9,16.71,24.9Z" transform="translate(-2.571 -1.928)" fill="#2d3142"/>
</svg>
