<svg xmlns="http://www.w3.org/2000/svg" width="28.26" height="28.26" viewBox="0 0 28.26 28.26">
  <path id="Icon_open-grid-four-up" data-name="Icon open-grid-four-up" d="M0,0V4.037H4.037V0ZM8.074,0V4.037h4.037V0Zm8.074,0V4.037h4.037V0Zm8.074,0V4.037H28.26V0ZM0,8.074v4.037H4.037V8.074Zm8.074,0v4.037h4.037V8.074Zm8.074,0v4.037h4.037V8.074Zm8.074,0v4.037H28.26V8.074ZM0,16.148v4.037H4.037V16.148Zm8.074,0v4.037h4.037V16.148Zm8.074,0v4.037h4.037V16.148Zm8.074,0v4.037H28.26V16.148ZM0,24.223V28.26H4.037V24.223Zm8.074,0V28.26h4.037V24.223Zm8.074,0V28.26h4.037V24.223Zm8.074,0V28.26H28.26V24.223Z" fill="#2d3142"/>
</svg>
