<svg xmlns="http://www.w3.org/2000/svg" width="29.983" height="28.219" viewBox="0 0 29.983 28.219">
  <path id="Icon_awesome-chart-pie" data-name="Icon awesome-chart-pie" d="M29.09,15.873H16.011l8.71,8.71a.884.884,0,0,0,1.223.037,13.2,13.2,0,0,0,4.031-7.764.883.883,0,0,0-.885-.984ZM28.217,12.3A13.259,13.259,0,0,0,15.917,0,.887.887,0,0,0,14.992.9V13.228H27.325a.886.886,0,0,0,.892-.926ZM12.346,15.873V2.795a.883.883,0,0,0-.983-.885A13.218,13.218,0,0,0,.008,15.453,13.391,13.391,0,0,0,13.395,28.218a13.125,13.125,0,0,0,7.455-2.427.876.876,0,0,0,.087-1.327Z" transform="translate(0 0)" fill="#2d3142"/>
</svg>
