<svg xmlns="http://www.w3.org/2000/svg" width="31" height="22.275" viewBox="0 0 31 22.275">
  <path id="Icon_awesome-users" data-name="Icon awesome-users" d="M192.4,304.862h0a3.189,3.189,0,1,0-3.189,3.189A3.188,3.188,0,0,0,192.4,304.862Zm-14.321,4.78h0a4.156,4.156,0,1,0-.008,0Zm-3.826,1.59h-.006a5.73,5.73,0,0,0-5.723,5.734V318.4a2.392,2.392,0,0,0,2.393,2.391h14.314a2.392,2.392,0,0,0,2.391-2.391v-1.431a5.727,5.727,0,0,0-5.727-5.725h-.411a7.689,7.689,0,0,1-6.809,0h-.417Zm14.866,4.78h3.27a1.6,1.6,0,0,0,1.6-1.6v-1.593a3.189,3.189,0,0,0-3.189-3.181h-3.174a3.171,3.171,0,0,0-2.242.924A7.293,7.293,0,0,1,189.119,316.012Zm9.291-11.8h0a2.243,2.243,0,1,0-2.242,2.244A2.243,2.243,0,0,0,198.41,304.21Zm-2.308,7.844h2.3a1.121,1.121,0,0,0,1.122-1.122V309.81a2.244,2.244,0,0,0-2.244-2.238h-2.233a2.236,2.236,0,0,0-1.576.651A5.136,5.136,0,0,1,196.1,312.054Z" transform="translate(-168.524 -298.513)" fill="#2d3142"/>
</svg>
