<svg xmlns="http://www.w3.org/2000/svg" width="30.902" height="29.914" viewBox="0 0 30.902 29.914">
  <g id="icon" transform="translate(0 -0.428)">
    <path id="Path_72" data-name="Path 72" d="M18.021,14.129a3.21,3.21,0,0,1,2.14-.528L28.6,5.156,23.876.428,15.431,8.873a3.189,3.189,0,0,1-.549,2.167Z" transform="translate(2.297 0)" fill="#2d3142"/>
    <path id="Path_73" data-name="Path 73" d="M5.458,21.924l-.306-.306-1.6,1.294-2.7,4.249.69.69,4.253-2.7,1.293-1.6-.307-.311,5.37-5.371-1.334-1.316Z" transform="translate(0.132 2.49)" fill="#2d3142"/>
    <path id="Path_74" data-name="Path 74" d="M12.934,9.425A6.582,6.582,0,0,0,4.866,1.293L8.6,5.024,7.619,8.678,3.96,9.657.229,5.929a6.59,6.59,0,0,0,8.413,7.986l.021.021L24.014,29.287a3.111,3.111,0,1,0,4.4-4.4Zm13.548,19.34a1.188,1.188,0,1,1,1.19-1.188A1.186,1.186,0,0,1,26.481,28.765Z" transform="translate(0 0.098)" fill="#2d3142"/>
  </g>
</svg>
