<svg xmlns="http://www.w3.org/2000/svg" width="21.159" height="28.213" viewBox="0 0 21.159 28.213">
  <g id="Group_710" data-name="Group 710" transform="translate(-287.358 -320.936)">
    <path id="Path_47" data-name="Path 47" d="M299.7,328.43v-7.494H288.681a1.319,1.319,0,0,0-1.323,1.317v25.574a1.32,1.32,0,0,0,1.317,1.323h18.52a1.321,1.321,0,0,0,1.323-1.317v-18.08h-7.494A1.325,1.325,0,0,1,299.7,328.43Zm-6.154,14.418v-8.783l6.221,4.391Zm8.781,0h-1.464v-8.783h1.464Z" transform="translate(0 0)" fill="#2d3142"/>
    <path id="Path_48" data-name="Path 48" d="M303.126,326.721l-5.4-5.4a1.319,1.319,0,0,0-.929-.386h-.336v7.056h7.053v-.339A1.323,1.323,0,0,0,303.126,326.721Z" transform="translate(5 0)" fill="#2d3142"/>
  </g>
</svg>
