<svg xmlns="http://www.w3.org/2000/svg" width="21.16" height="28.212" viewBox="0 0 21.16 28.212">
  <g id="Group_193" data-name="Group 193" transform="translate(-206.771 -320.936)">
    <path id="Path_38" data-name="Path 38" d="M222.539,326.721l-5.4-5.4a1.315,1.315,0,0,0-.928-.386h-.336v7.055h7.052v-.339A1.329,1.329,0,0,0,222.539,326.721Z" transform="translate(4.999)" fill="#2d3142"/>
    <path id="Path_39" data-name="Path 39" d="M219.114,328.43v-7.494H208.094a1.321,1.321,0,0,0-1.323,1.317v25.572a1.321,1.321,0,0,0,1.318,1.323h18.519a1.322,1.322,0,0,0,1.323-1.316V329.752h-7.494A1.325,1.325,0,0,1,219.114,328.43Zm-3.166,14.417h-2.01v-8.782h2.01Zm4.816,0h-2.01v-8.782h2.01Z" transform="translate(0)" fill="#2d3142"/>
  </g>
</svg>
