<svg xmlns="http://www.w3.org/2000/svg" width="21.16" height="28.214" viewBox="0 0 21.16 28.214">
  <g id="Group_706" data-name="Group 706" transform="translate(-122.311 -320.936)">
    <path id="Path_42" data-name="Path 42" d="M134.654,328.43v-7.494h-11.02a1.32,1.32,0,0,0-1.323,1.317v25.574a1.321,1.321,0,0,0,1.317,1.323h18.52a1.32,1.32,0,0,0,1.323-1.317v-18.08h-7.494A1.326,1.326,0,0,1,134.654,328.43Zm2.629,16.147H128.5V335.8h8.783Z" transform="translate(0 0)" fill="#2d3142"/>
    <path id="Path_43" data-name="Path 43" d="M138.079,326.722l-5.4-5.4a1.316,1.316,0,0,0-.929-.386h-.336v7.056h7.053v-.339A1.316,1.316,0,0,0,138.079,326.722Z" transform="translate(5 0)" fill="#2d3142"/>
  </g>
</svg>
