<svg xmlns="http://www.w3.org/2000/svg" width="21.319" height="28.426" viewBox="0 0 21.319 28.426">
  <g id="Group_166" data-name="Group 166" transform="translate(-39.75 -320.936)">
    <path id="Path_40" data-name="Path 40" d="M52.185,328.486v-7.55h-11.1a1.33,1.33,0,0,0-1.333,1.327v25.766a1.331,1.331,0,0,0,1.327,1.333H59.736a1.33,1.33,0,0,0,1.333-1.327V329.819h-7.55A1.336,1.336,0,0,1,52.185,328.486Zm-5.8,17.025V335.149l8.974,5.181Z" transform="translate(0)" fill="#2d3142"/>
    <path id="Path_41" data-name="Path 41" d="M55.568,326.765l-5.436-5.44a1.326,1.326,0,0,0-.936-.389h-.339v7.109h7.106V327.7A1.326,1.326,0,0,0,55.568,326.765Z" transform="translate(5.106)" fill="#2d3142"/>
  </g>
</svg>
