<svg xmlns="http://www.w3.org/2000/svg" width="31.102" height="28.143" viewBox="0 0 31.102 28.143">
  <g id="Group_709" data-name="Group 709" transform="translate(-104.798 -646.55)">
    <rect id="Rectangle_222" data-name="Rectangle 222" width="31.102" height="4.875" transform="translate(104.798 646.55)" fill="#2d3142"/>
    <path id="Path_45" data-name="Path 45" d="M106.3,651.719v17.425a2.506,2.506,0,0,0,2.608,2.388h22.264a2.506,2.506,0,0,0,2.608-2.388V651.719Zm9.74,15.683a2.507,2.507,0,1,1,2.728-2.5A2.62,2.62,0,0,1,116.04,667.4Zm8,0a2.507,2.507,0,1,1,2.728-2.5A2.619,2.619,0,0,1,124.04,667.4Zm0-7.321a2.507,2.507,0,1,1,2.728-2.5A2.619,2.619,0,0,1,124.04,660.081Z" transform="translate(0.309 3.161)" fill="#2d3142"/>
  </g>
</svg>
