<svg xmlns="http://www.w3.org/2000/svg" width="31" height="21.7" viewBox="0 0 31 21.7">
  <path id="Icon_awesome-users" data-name="Icon awesome-users" d="M4.65,11.55a3.1,3.1,0,1,0-3.1-3.1A3.1,3.1,0,0,0,4.65,11.55Zm21.7,0a3.1,3.1,0,1,0-3.1-3.1A3.1,3.1,0,0,0,26.35,11.55ZM27.9,13.1H24.8a3.091,3.091,0,0,0-2.185.9,7.085,7.085,0,0,1,3.638,5.3h3.2A1.548,1.548,0,0,0,31,17.75V16.2A3.1,3.1,0,0,0,27.9,13.1Zm-12.4,0a5.425,5.425,0,1,0-5.425-5.425A5.422,5.422,0,0,0,15.5,13.1Zm3.72,1.55h-.4a7.49,7.49,0,0,1-6.636,0h-.4A5.581,5.581,0,0,0,6.2,20.23v1.4A2.326,2.326,0,0,0,8.525,23.95h13.95A2.326,2.326,0,0,0,24.8,21.625v-1.4A5.581,5.581,0,0,0,19.22,14.65ZM8.385,14A3.091,3.091,0,0,0,6.2,13.1H3.1A3.1,3.1,0,0,0,0,16.2v1.55A1.548,1.548,0,0,0,1.55,19.3H4.742A7.1,7.1,0,0,1,8.385,14Z" transform="translate(0 -2.25)" fill="#2d3142"/>
</svg>
