<svg xmlns="http://www.w3.org/2000/svg" width="32" height="26" viewBox="0 0 32 26">
  <g id="Group_705" data-name="Group 705" transform="translate(-296 -296.5)">
    <path id="Union_1" data-name="Union 1" d="M-6912,246v-8.626a4,4,0,0,1-3-3.874,4,4,0,0,1,3-3.874V220h2v9.626a4,4,0,0,1,3,3.874,4,4,0,0,1-3,3.874V246Z" transform="translate(7211 76.5)" fill="#2d3142"/>
    <path id="Subtraction_1" data-name="Subtraction 1" d="M-6892,237h-23V220h23v17Zm-19-6h0v2h8v-2Zm0-6h0v2h13v-2Z" transform="translate(7220 82)" fill="#2d3142"/>
  </g>
</svg>
